# xmcd
#
# Track frame offsets: 
#        150
#        13007
#        29480
#        51660
#        63635
#        86615
#        113660
#        128487
#        160902
#        191435
#
# Disc length: 2781 seconds
#
# Revision: 3
# Processed by: cddbd v1.5.2PL0 Copyright (c) Steve Scherf et al.
# Submitted via: ExactAudioCopyFreeDBPlugin 1.0
#
DISCID=830adb0a
DTITLE=LUTHER ALLISON - Serious
DYEAR=1994
DGENRE=Blues
TTITLE0=Backtrack
TTITLE1=Life Is A Bitch
TTITLE2=Reaching Out
TTITLE3=Parking Lot
TTITLE4=Serious
TTITLE5=Just Memories
TTITLE6=Should I Wait
TTITLE7=Show Me A Reason
TTITLE8=Let's Try Again
TTITLE9=We're On The Road
EXTD=
EXTT0=
EXTT1=
EXTT2=
EXTT3=
EXTT4=
EXTT5=
EXTT6=
EXTT7=
EXTT8=
EXTT9=
PLAYORDER=
